<?xml version="1.0" encoding="UTF-8"?>
<!DOCTYPE svg PUBLIC "-//W3C//DTD SVG 1.1//EN" "http://www.w3.org/Graphics/SVG/1.1/DTD/svg11.dtd">
<!-- Creator: CorelDRAW -->
<svg xmlns="http://www.w3.org/2000/svg" xml:space="preserve" width="1412px" height="1683px" version="1.1" style="shape-rendering:geometricPrecision; text-rendering:geometricPrecision; image-rendering:optimizeQuality; fill-rule:evenodd; clip-rule:evenodd"
viewBox="0 0 157.73 187.99"
 xmlns:xlink="http://www.w3.org/1999/xlink"
 xmlns:xodm="http://www.corel.com/coreldraw/odm/2003">
 <defs>
  <style type="text/css">
   <![CDATA[
    .str0 {stroke:black;stroke-width:3.91;stroke-linecap:round;stroke-miterlimit:2.61313}
    .fil0 {fill:none}
    .fil3 {fill:black}
    .fil1 {fill:#7D14B9}
    .fil2 {fill:white}
    .fil4 {fill:black;fill-rule:nonzero}
    .fil5 {fill:#7D14B9;fill-rule:nonzero}
   ]]>
  </style>
 </defs>
 <g id="Layer_x0020_1">
  <metadata id="CorelCorpID_0Corel-Layer"/>
  <g id="_2483817386448">
   <g>
    <path class="fil0 str0" d="M46.58 125.33c-5.49,0 -10.53,-4.49 -11.21,-9.98l-11.28 -91.21c-0.68,-5.49 3.25,-9.97 8.73,-9.97l65.1 0c5.49,0 10.53,4.48 11.21,9.97l3.12 25.27"/>
    <path class="fil0 str0" d="M34.79 113.12l-1.44 0c-5.49,0 -10.53,-4.49 -11.21,-9.98l-11.28 -91.21c-0.68,-5.49 3.25,-9.98 8.73,-9.98l65.1 0c5.49,0 10.53,4.49 11.21,9.98l0.19 1.55"/>
    <g>
     <rect class="fil1" transform="matrix(0.911175 -0 0.102182 0.911175 46.5505 57.5208)" width="86.72" height="86.72" rx="12.01" ry="12.01"/>
     <g>
      <g>
       <path class="fil2" d="M59.84 79.03l20.81 0c1.01,0 1.93,0.83 2.04,1.84l0 0c0.12,1.01 -0.62,1.83 -1.63,1.83l-20.81 0c-1.01,0 -1.93,-0.82 -2.04,-1.83l0 0c-0.11,-1.01 0.62,-1.84 1.63,-1.84z"/>
       <path class="fil2" d="M69.79 91.29l-2.34 -20.85c-0.12,-1 0.62,-1.82 1.63,-1.82l0 0c1.01,0 1.93,0.82 2.04,1.82l2.34 20.85c0.11,1 -0.63,1.82 -1.63,1.82l-0.01 0c-1.01,0 -1.92,-0.82 -2.03,-1.82z"/>
      </g>
      <g>
       <path class="fil2" d="M99.06 86.77l12.79 -14.41c0.71,-0.8 1.94,-0.86 2.73,-0.15l0 0c0.8,0.71 0.87,1.95 0.16,2.75l-12.79 14.41c-0.71,0.8 -1.94,0.87 -2.74,0.15l0 0c-0.79,-0.71 -0.86,-1.95 -0.15,-2.75z"/>
       <path class="fil2" d="M114.08 89.66l-16.67 -14.99c-0.71,-0.64 -0.77,-1.75 -0.14,-2.46l0 0c0.64,-0.71 1.74,-0.78 2.45,-0.14l16.67 14.99c0.71,0.64 0.77,1.75 0.14,2.46l0 0c-0.64,0.72 -1.74,0.78 -2.45,0.14z"/>
      </g>
      <g>
       <path class="fil2" d="M63.73 113.7l20.81 0c1.01,0 1.93,0.82 2.04,1.83l0 0c0.11,1.01 -0.62,1.84 -1.63,1.84l-20.81 0c-1.01,0 -1.93,-0.83 -2.04,-1.84l0 0c-0.11,-1.01 0.62,-1.83 1.63,-1.83z"/>
       <path class="fil2" d="M73.23 105.64c1.52,0 2.89,1.23 3.06,2.75 0.17,1.52 -0.92,2.75 -2.44,2.75 -1.52,0 -2.9,-1.23 -3.07,-2.75 -0.17,-1.52 0.93,-2.75 2.45,-2.75z"/>
       <path class="fil2" d="M74.83 119.92c1.52,0 2.9,1.24 3.07,2.76 0.17,1.52 -0.93,2.75 -2.45,2.75 -1.52,0 -2.89,-1.23 -3.06,-2.75 -0.17,-1.52 0.92,-2.76 2.44,-2.76z"/>
      </g>
      <g>
       <path class="fil2" d="M100.63 117.75l20.81 0c1.01,0 1.93,0.83 2.04,1.84l0 0c0.12,1.01 -0.62,1.84 -1.63,1.84l-20.81 0c-1.01,0 -1.93,-0.83 -2.04,-1.84l0 0c-0.11,-1.01 0.62,-1.84 1.63,-1.84z"/>
       <path class="fil2" d="M99.72 109.64l20.81 0c1.01,0 1.93,0.83 2.04,1.84l0 0c0.12,1.01 -0.62,1.83 -1.63,1.83l-20.81 0c-1.01,0 -1.93,-0.82 -2.04,-1.83l0 0c-0.11,-1.01 0.62,-1.84 1.63,-1.84z"/>
      </g>
     </g>
    </g>
    <path class="fil3" d="M48.82 46.13l45.79 0c0.84,0 1.53,0.68 1.53,1.52l0 0c0,0.84 -0.69,1.53 -1.53,1.53l-45.79 0c-0.84,0 -1.52,-0.69 -1.52,-1.53l0 0c0,-0.84 0.68,-1.52 1.52,-1.52z"/>
    <path class="fil3" d="M45.96 37.36l45.78 0c0.84,0 1.53,0.69 1.53,1.53l0 0c0,0.84 -0.69,1.52 -1.53,1.52l-45.78 0c-0.84,0 -1.53,-0.68 -1.53,-1.52l0 0c0,-0.84 0.69,-1.53 1.53,-1.53z"/>
    <path class="fil3" d="M43.77 28.59l29.51 0c0.84,0 1.53,0.69 1.53,1.53l0 0c0,0.84 -0.69,1.53 -1.53,1.53l-29.51 0c-0.84,0 -1.53,-0.69 -1.53,-1.53l0 0c0,-0.84 0.69,-1.53 1.53,-1.53z"/>
   </g>
   <g>
    <path class="fil4" d="M120.12 164.8c1.04,0.29 2.15,0.53 3.32,0.7 1.18,0.17 2.33,0.25 3.47,0.25 0.56,0 1.09,-0.01 1.57,-0.03 0.49,-0.03 1.06,-0.08 1.72,-0.17l0 -4.11 -3.16 -0.27c-1.4,-0.12 -2.58,-0.31 -3.53,-0.58 -0.95,-0.27 -1.71,-0.64 -2.27,-1.12 -0.57,-0.48 -0.97,-1.09 -1.21,-1.83 -0.24,-0.75 -0.35,-1.68 -0.35,-2.79 0,-1.74 0.23,-3.13 0.71,-4.17 0.47,-1.04 1.26,-1.79 2.36,-2.24 1.09,-0.46 2.55,-0.68 4.36,-0.68 1.29,0 2.54,0.07 3.75,0.2 1.21,0.14 2.43,0.34 3.65,0.61l-0.65 4.04c-1.08,-0.2 -2.07,-0.35 -2.97,-0.44 -0.89,-0.09 -1.85,-0.13 -2.86,-0.13 -0.66,0 -1.19,0.01 -1.58,0.03 -0.4,0.02 -0.83,0.07 -1.31,0.14l0 4.14 3.12 0.23c1.81,0.14 3.26,0.45 4.33,0.94 1.08,0.48 1.86,1.19 2.34,2.1 0.49,0.92 0.73,2.12 0.73,3.62 0,1.6 -0.28,2.91 -0.84,3.9 -0.57,1 -1.47,1.72 -2.7,2.17 -1.24,0.46 -2.86,0.68 -4.87,0.68 -1.41,0 -2.75,-0.08 -4.04,-0.23 -1.29,-0.16 -2.56,-0.42 -3.81,-0.78l0.72 -4.18z"/>
    <path class="fil4" d="M93.22 169.48l0 -21.21 4.99 0 6.45 10.39c0.31,0.54 0.54,0.97 0.66,1.29 0.12,0.31 0.19,0.64 0.19,0.98l0.2 0 0 -12.66 5.06 0 0 21.21 -4.96 0 -6.45 -10.38c-0.31,-0.55 -0.54,-0.98 -0.66,-1.29 -0.12,-0.32 -0.2,-0.65 -0.22,-0.99l-0.2 0 0 12.66 -5.06 0z"/>
    <polygon class="fil5" points="75.72,160.76 75.72,165.31 84.38,165.31 84.41,169.48 70.7,169.48 70.66,148.27 84.45,148.27 83.8,152.44 75.72,152.44 75.72,156.99 83.16,156.99 83.16,160.76 "/>
    <polygon class="fil4" points="28.14,157.6 33.64,148.27 39.14,148.27 31.74,160.73 "/>
    <polygon class="fil4" points="31.26,160.15 25.73,169.48 20.26,169.48 27.66,157.03 "/>
    <polygon class="fil4" points="39.37,169.48 33.77,169.48 20.5,148.27 26.13,148.27 "/>
    <rect class="fil3" y="148.27" width="13.88" height="4.17"/>
    <rect class="fil3" y="165.24" width="13.88" height="4.17"/>
    <rect class="fil3" y="156.98" width="13.88" height="3.79"/>
    <rect class="fil3" x="144.05" y="148.27" width="13.68" height="4.17"/>
    <rect class="fil3" x="144.05" y="165.24" width="13.68" height="4.17"/>
    <rect class="fil3" x="144.05" y="156.98" width="13.68" height="3.79"/>
    <path class="fil4" d="M51.91 163.41l0 6.07 -5.06 0 0 -21.21 9 0c1.7,0 3.06,0.24 4.09,0.73 1.03,0.48 1.78,1.28 2.24,2.37 0.47,1.1 0.7,2.57 0.7,4.4 0,2.67 -0.52,4.61 -1.56,5.82 -1.05,1.21 -2.7,1.82 -4.96,1.82l-4.45 0zm0 -3.77l3.8 0c0.71,0 1.19,-0.1 1.45,-0.31 0.26,-0.2 0.39,-0.57 0.39,-1.12l0 -4.34c0,-0.54 -0.13,-0.92 -0.39,-1.12 -0.26,-0.21 -0.74,-0.31 -1.45,-0.31l-3.8 0 0 7.2z"/>
   </g>
   <polygon class="fil4" points="40.61,178.91 40.63,187.74 38.56,187.74 38.56,178.93 35.88,178.91 35.88,177.21 43.31,177.21 43.31,178.93 "/>
   <path id="_1" class="fil4" d="M50.7 184.17l0 3.57 -2.07 0 0 -10.53 4.37 0c0.78,0 1.41,0.12 1.87,0.35 0.47,0.24 0.81,0.62 1.01,1.15 0.21,0.53 0.32,1.24 0.32,2.14 0,1.17 -0.24,2.01 -0.7,2.53 -0.46,0.53 -1.21,0.79 -2.25,0.79l-2.55 0zm0 -1.59l2.28 0c0.39,0 0.66,-0.05 0.82,-0.15 0.15,-0.1 0.22,-0.28 0.22,-0.55l0 -2.24c0,-0.27 -0.07,-0.46 -0.22,-0.56 -0.16,-0.1 -0.43,-0.15 -0.82,-0.15l-2.28 0 0 3.65zm3.71 0.44l2.27 4.72 -2.25 0 -1.94 -4.1 1.92 -0.62z"/>
   <path id="_2" class="fil4" d="M61.17 187.74l3.01 -10.53 3.17 0 3.01 10.53 -2.07 0 -2.46 -8.59 -0.15 0 -2.44 8.59 -2.07 0zm1.63 -2.21l0 -1.58 5.95 0 0 1.58 -5.95 0z"/>
   <path id="_3" class="fil4" d="M82.24 187.55c-0.41,0.16 -0.85,0.27 -1.31,0.34 -0.46,0.07 -1,0.1 -1.62,0.1 -0.81,0 -1.47,-0.09 -1.99,-0.26 -0.51,-0.18 -0.92,-0.47 -1.22,-0.89 -0.29,-0.41 -0.5,-0.98 -0.63,-1.69 -0.12,-0.71 -0.18,-1.6 -0.18,-2.67 0,-1.09 0.06,-1.99 0.19,-2.7 0.13,-0.71 0.35,-1.28 0.66,-1.69 0.31,-0.41 0.74,-0.7 1.29,-0.87 0.55,-0.18 1.25,-0.26 2.1,-0.26 0.25,0 0.53,0.01 0.86,0.04 0.33,0.03 0.64,0.07 0.94,0.13 0.31,0.05 0.55,0.12 0.74,0.2l-0.27 1.68c-0.25,-0.06 -0.54,-0.12 -0.86,-0.17 -0.32,-0.04 -0.63,-0.08 -0.92,-0.11 -0.29,-0.02 -0.53,-0.04 -0.72,-0.04 -0.64,0 -1.1,0.08 -1.38,0.24 -0.27,0.16 -0.41,0.5 -0.41,1.03l0 6.08c0.28,0.06 0.58,0.12 0.89,0.16 0.32,0.04 0.64,0.05 0.96,0.05 0.46,0 0.93,-0.03 1.39,-0.11 0.47,-0.08 0.9,-0.18 1.31,-0.31l0.18 1.72z"/>
   <path id="_4" class="fil4" d="M93.55 187.74l-1.26 -2.66c-0.15,-0.32 -0.29,-0.64 -0.42,-0.98 -0.13,-0.34 -0.19,-0.66 -0.19,-0.98l-2.12 0 0 -1.58 2.12 0c0,-0.32 0.06,-0.64 0.18,-0.98 0.13,-0.33 0.27,-0.66 0.43,-0.97l1.17 -2.38 2.26 0 -2.51 5.12 2.6 5.41 -2.26 0zm-5.8 0l0 -10.53 2.08 0 0 10.53 -2.08 0z"/>
   <polygon id="_5" class="fil4" points="103.12,183.26 103.14,186.02 107.6,186.04 107.62,187.74 101.06,187.74 101.06,177.21 107.58,177.21 107.33,178.93 103.12,178.91 103.14,181.67 106.98,181.69 106.98,183.27 "/>
   <path id="_6" class="fil4" d="M115.57 184.17l0 3.57 -2.07 0 0 -10.53 4.36 0c0.79,0 1.41,0.12 1.88,0.35 0.47,0.24 0.8,0.62 1.01,1.15 0.21,0.53 0.31,1.24 0.31,2.14 0,1.17 -0.23,2.01 -0.69,2.53 -0.46,0.53 -1.21,0.79 -2.26,0.79l-2.54 0zm0 -1.59l2.27 0c0.4,0 0.67,-0.05 0.82,-0.15 0.15,-0.1 0.23,-0.28 0.23,-0.55l0 -2.24c0,-0.27 -0.08,-0.46 -0.23,-0.56 -0.15,-0.1 -0.42,-0.15 -0.82,-0.15l-2.27 0 0 3.65zm3.71 0.44l2.27 4.72 -2.26 0 -1.93 -4.1 1.92 -0.62z"/>
  </g>
 </g>
</svg>
