<svg xmlns="http://www.w3.org/2000/svg" xmlns:xlink="http://www.w3.org/1999/xlink" width="120" zoomAndPan="magnify" viewBox="0 0 90 89.999999" height="120" preserveAspectRatio="xMidYMid meet" version="1.0"><defs><clipPath id="064442533c"><path d="M 12.148438 12 L 39.148438 12 L 39.148438 39 L 12.148438 39 Z M 12.148438 12 " clip-rule="nonzero"/></clipPath><clipPath id="f786b0d51b"><path d="M 25.648438 12 C 18.195312 12 12.148438 18.042969 12.148438 25.5 C 12.148438 32.957031 18.195312 39 25.648438 39 C 33.105469 39 39.148438 32.957031 39.148438 25.5 C 39.148438 18.042969 33.105469 12 25.648438 12 Z M 25.648438 12 " clip-rule="nonzero"/></clipPath><clipPath id="0e048898bd"><path d="M 50.699219 12 L 77.699219 12 L 77.699219 39 L 50.699219 39 Z M 50.699219 12 " clip-rule="nonzero"/></clipPath><clipPath id="26978451cb"><path d="M 64.199219 12 C 56.746094 12 50.699219 18.042969 50.699219 25.5 C 50.699219 32.957031 56.746094 39 64.199219 39 C 71.65625 39 77.699219 32.957031 77.699219 25.5 C 77.699219 18.042969 71.65625 12 64.199219 12 Z M 64.199219 12 " clip-rule="nonzero"/></clipPath><clipPath id="cb0c49405c"><path d="M 50.699219 50.550781 L 77.699219 50.550781 L 77.699219 77.550781 L 50.699219 77.550781 Z M 50.699219 50.550781 " clip-rule="nonzero"/></clipPath><clipPath id="f77eb41519"><path d="M 64.199219 50.550781 C 56.746094 50.550781 50.699219 56.59375 50.699219 64.050781 C 50.699219 71.503906 56.746094 77.550781 64.199219 77.550781 C 71.65625 77.550781 77.699219 71.503906 77.699219 64.050781 C 77.699219 56.59375 71.65625 50.550781 64.199219 50.550781 Z M 64.199219 50.550781 " clip-rule="nonzero"/></clipPath><clipPath id="aab8b989ee"><path d="M 12.148438 50.550781 L 39.148438 50.550781 L 39.148438 77.550781 L 12.148438 77.550781 Z M 12.148438 50.550781 " clip-rule="nonzero"/></clipPath><clipPath id="eca9196050"><path d="M 25.648438 50.550781 C 18.195312 50.550781 12.148438 56.59375 12.148438 64.050781 C 12.148438 71.503906 18.195312 77.550781 25.648438 77.550781 C 33.105469 77.550781 39.148438 71.503906 39.148438 64.050781 C 39.148438 56.59375 33.105469 50.550781 25.648438 50.550781 Z M 25.648438 50.550781 " clip-rule="nonzero"/></clipPath></defs><g clip-path="url(#064442533c)"><g clip-path="url(#f786b0d51b)"><path fill="#000000" d="M 12.148438 12 L 39.148438 12 L 39.148438 39 L 12.148438 39 Z M 12.148438 12 " fill-opacity="1" fill-rule="nonzero"/></g></g><g clip-path="url(#0e048898bd)"><g clip-path="url(#26978451cb)"><path fill="#000000" d="M 50.699219 12 L 77.699219 12 L 77.699219 39 L 50.699219 39 Z M 50.699219 12 " fill-opacity="1" fill-rule="nonzero"/></g></g><g clip-path="url(#cb0c49405c)"><g clip-path="url(#f77eb41519)"><path fill="#000000" d="M 50.699219 50.550781 L 77.699219 50.550781 L 77.699219 77.550781 L 50.699219 77.550781 Z M 50.699219 50.550781 " fill-opacity="1" fill-rule="nonzero"/></g></g><g clip-path="url(#aab8b989ee)"><g clip-path="url(#eca9196050)"><path fill="#000000" d="M 12.148438 50.550781 L 39.148438 50.550781 L 39.148438 77.550781 L 12.148438 77.550781 Z M 12.148438 50.550781 " fill-opacity="1" fill-rule="nonzero"/></g></g></svg>