<svg xmlns="http://www.w3.org/2000/svg" xmlns:xlink="http://www.w3.org/1999/xlink" width="1080" zoomAndPan="magnify" viewBox="0 0 810 809.999993" height="1080" preserveAspectRatio="xMidYMid meet" version="1.0"><defs><clipPath id="2932f534ea"><path d="M 81 81 L 172 81 L 172 227 L 81 227 Z M 81 81 " clip-rule="nonzero"/></clipPath></defs><path fill="#000000" d="M 700.941406 379.148438 L 683.789062 404.589844 L 312.34375 154.390625 L 329.496094 128.953125 C 337.363281 117.25 353.308594 114.128906 364.964844 121.996094 L 693.988281 343.632812 C 705.6875 351.5 708.808594 367.449219 700.941406 379.148438 Z M 581.289062 556.8125 L 600.148438 422.199219 L 649.523438 455.46875 Z M 546.316406 673.5625 C 544.359375 687.511719 531.414062 697.296875 517.464844 695.339844 L 124.621094 640.296875 C 110.675781 638.339844 100.851562 625.347656 102.847656 611.398438 L 126.953125 439.230469 L 570.464844 501.4375 Z M 139.734375 348.128906 C 141.691406 334.140625 154.640625 324.394531 168.585938 326.351562 L 561.429688 381.4375 C 575.417969 383.355469 585.203125 396.304688 583.203125 410.292969 L 578.957031 440.644531 L 135.445312 378.480469 Z M 278.121094 205.273438 L 499.023438 354.082031 L 205.597656 312.902344 Z M 704.269531 328.394531 L 375.292969 106.757812 C 355.183594 93.226562 327.789062 98.515625 314.214844 118.667969 L 185.28125 310.074219 L 171.167969 308.117188 C 147.144531 304.742188 124.871094 321.5625 121.5 345.589844 L 84.65625 608.820312 C 81.242188 632.84375 98.0625 655.117188 122.042969 658.492188 L 514.882812 713.578125 C 538.90625 716.949219 561.179688 700.085938 564.550781 676.105469 L 575.460938 598.410156 L 716.175781 389.390625 C 729.75 369.320312 724.378906 341.925781 704.269531 328.394531 " fill-opacity="1" fill-rule="nonzero"/><path fill="#000000" d="M 339.027344 516.925781 L 528.457031 543.53125 L 530.539062 528.5 L 341.152344 501.9375 L 339.027344 516.925781 " fill-opacity="1" fill-rule="nonzero"/><path fill="#000000" d="M 334.53125 549.402344 L 523.917969 575.925781 L 526 560.894531 L 336.613281 534.328125 L 334.53125 549.402344 " fill-opacity="1" fill-rule="nonzero"/><g clip-path="url(#2932f534ea)"><path fill="#000000" d="M 109.265625 187.917969 C 112.589844 191.449219 116.714844 193.703125 121.648438 194.660156 L 121.648438 161.089844 C 121.105469 160.875 120.386719 160.636719 119.476562 160.359375 C 118.5625 160.09375 117.570312 159.855469 116.5 159.644531 C 112.53125 158.578125 108.621094 157.308594 104.761719 155.863281 C 100.902344 154.417969 97.441406 152.488281 94.382812 150.078125 C 91.328125 147.667969 88.886719 144.667969 87.074219 141.082031 C 85.25 137.496094 84.339844 133.023438 84.339844 127.660156 C 84.339844 122.199219 85.386719 117.378906 87.476562 113.210938 C 89.566406 109.035156 92.320312 105.523438 95.757812 102.6875 C 99.179688 99.847656 103.148438 97.648438 107.652344 96.101562 C 112.15625 94.550781 116.824219 93.621094 121.648438 93.289062 L 121.648438 80.9375 L 131.132812 80.9375 L 131.132812 93.308594 C 135.957031 93.839844 140.488281 94.890625 144.722656 96.433594 C 148.960938 97.988281 152.6875 100.132812 155.902344 102.863281 C 159.117188 105.597656 161.742188 109 163.785156 113.066406 C 165.820312 117.140625 167 121.960938 167.320312 127.523438 L 144.484375 127.523438 C 144.375 123.238281 143.039062 119.59375 140.460938 116.597656 C 137.890625 113.597656 134.78125 112.089844 131.140625 112.089844 L 131.140625 140.519531 C 132.429688 140.84375 133.738281 141.164062 135.082031 141.488281 C 136.425781 141.808594 137.84375 142.1875 139.347656 142.609375 C 147.285156 144.753906 153.390625 147.410156 157.679688 150.566406 C 161.960938 153.71875 165.128906 157.023438 167.164062 160.445312 C 169.199219 163.867188 170.40625 167.296875 170.78125 170.726562 C 171.160156 174.160156 171.34375 177.203125 171.34375 179.878906 C 171.34375 182.242188 170.753906 185.207031 169.578125 188.792969 C 168.398438 192.390625 166.28125 195.882812 163.222656 199.316406 C 160.164062 202.746094 156.066406 205.800781 150.921875 208.476562 C 145.773438 211.152344 139.179688 212.753906 131.140625 213.296875 L 131.140625 226.945312 L 121.65625 226.945312 L 121.65625 213.296875 C 109.652344 212.441406 100.269531 208.742188 93.519531 202.210938 C 86.757812 195.683594 82.847656 186.097656 81.777344 173.460938 L 104.457031 173.460938 C 104.335938 179.566406 105.949219 184.378906 109.265625 187.917969 Z M 116.34375 112.898438 C 114.632812 113.433594 113.074219 114.269531 111.6875 115.382812 C 110.296875 116.515625 109.199219 117.902344 108.390625 119.558594 C 107.589844 121.222656 107.183594 123.171875 107.183594 125.417969 C 107.183594 128.960938 108.304688 131.679688 110.5625 133.613281 C 112.808594 135.535156 116.511719 137.089844 121.65625 138.265625 L 121.65625 112.089844 C 119.824219 112.089844 118.058594 112.355469 116.34375 112.898438 Z M 137.171875 193.300781 C 139.261719 192.601562 141.140625 191.605469 142.800781 190.328125 C 144.457031 189.050781 145.828125 187.457031 146.898438 185.582031 C 147.964844 183.714844 148.507812 181.488281 148.507812 178.914062 C 148.507812 174.738281 147.191406 171.609375 144.566406 169.523438 C 141.941406 167.433594 137.46875 165.53125 131.140625 163.820312 L 131.140625 194.660156 C 133.066406 194.449219 135.082031 194 137.171875 193.300781 Z M 137.171875 193.300781 " fill-opacity="1" fill-rule="nonzero"/></g></svg>